# xmcd CD database file
#
# Track frame offsets:
#	150
#	24078
#	36333
#	107720
#	122573
#	144553
#	153575
#	193638
#	209828
#	267233
#	277958
#
# Disc length: 4078 seconds
#
# Revision: 0
# Processed by: cddbd v1.5.1PL0 Copyright (c) Steve Scherf et al.
# Submitted via: CDex 1.51
#
DISCID=9e0fec0b
DTITLE=Ken Vandermark's Barrage Double Trio - Utility Hitter
DYEAR=2002
DGENRE=Jazz
TTITLE0=Over and Both
TTITLE1=Chicago Trio
TTITLE2=Agamemnon Sleeps
TTITLE3=Bass Duo
TTITLE4=Turn Your Head
TTITLE5=Tenor Duo
TTITLE6=There Is No Reason
TTITLE7=Drum Duo
TTITLE8=East River Suite
TTITLE9=Boston Trio
TTITLE10=Polarity
EXTD=YEAR: 2002
EXTT0=
EXTT1=
EXTT2=
EXTT3=
EXTT4=
EXTT5=
EXTT6=
EXTT7=
EXTT8=
EXTT9=
EXTT10=
PLAYORDER=
